<svg width="138" height="35" viewBox="0 0 138 35" fill="none" xmlns="http://www.w3.org/2000/svg">
<g clip-path="url(#clip0_1006_3666)">
<path d="M56.3752 11.625C55.7502 10.625 54.0002 9.625 52.0002 9.625C49.3752 9.625 48.1252 10.75 48.1252 12.125C48.1252 13.75 50.0002 14.125 52.2502 14.5C56.1252 15 59.7502 16 59.7502 20.375C59.7502 24.5 56.1252 26.25 52.0002 26.25C48.2502 26.25 45.3752 25.125 44.0002 21.75L46.8752 20.25C47.7502 22.25 49.8752 23.125 52.1252 23.125C54.3752 23.125 56.3752 22.375 56.3752 20.375C56.3752 18.625 54.5002 17.875 52.1252 17.625C48.3752 17.125 44.8752 16.125 44.8752 12C44.8752 8.25 48.6252 6.625 52.0002 6.625C54.8752 6.625 57.8752 7.5 59.2502 10.25L56.3752 11.625Z" fill="#202124"/>
<path d="M65.625 8.875C65.625 11.375 61.875 11.375 61.875 8.875C61.875 6.375 65.625 6.375 65.625 8.875ZM62.125 12.5V25.625H65.375V12.5H62.125Z" fill="#202124"/>
<path d="M76.8755 25.625V18.625C76.8755 16.875 76.0005 15.375 74.2505 15.375C72.5005 15.375 71.5005 16.875 71.5005 18.625V25.625H68.2505V12.5H71.2505L71.5005 14.125C72.1255 12.75 73.7505 12.375 74.8755 12.375C76.3755 12.375 78.0005 13 78.7505 14.75C79.8755 12.875 81.3755 12.375 83.1255 12.375C86.8755 12.375 88.6255 14.625 88.6255 18.5V25.5H85.3755V18.5C85.3755 16.75 84.6255 15.375 82.8755 15.375C81.1255 15.375 80.0005 16.875 80.0005 18.625V25.625H76.8755Z" fill="#202124"/>
<path d="M100.875 20.125H95.6252V25.625H92.1252V7.125C95.0002 7.125 98.0002 7.125 100.875 7.125C109.875 7.125 110 20.125 100.875 20.125ZM95.6252 17H100.875C105.375 17 105.375 10.5 100.875 10.5H95.6252V17Z" fill="#00D14F"/>
<path d="M119.625 12.625H122.75V25.625H119.75L119.625 23.75C118.875 25.25 116.875 26 115.375 26C111.5 26 108.625 23.625 108.625 19.125C108.625 14.625 111.625 12.25 115.375 12.25C117.125 12.25 118.75 13.125 119.5 14.375L119.625 12.625ZM111.75 19.125C111.75 21.625 113.5 23.125 115.625 23.125C120.75 23.125 120.75 15.25 115.625 15.25C113.5 15.125 111.75 16.625 111.75 19.125Z" fill="#00D14F"/>
<path d="M138 12.625L130 31H126.5L128.875 25.375L123.625 12.625H127.375L129.375 18.25L130.625 21.875L132 18.25L134.375 12.5H138V12.625Z" fill="#00D14F"/>
<path d="M34.625 10.375H0C0 4.875 4.375 0.5 9.875 0.5H34.625V10.375Z" fill="#00D14F"/>
<path d="M34.625 12.625H0V22.5H34.625V12.625Z" fill="#00D14F"/>
<path d="M24.75 34.5H0V24.625H34.625C34.625 30.125 30.25 34.5 24.75 34.5Z" fill="#00D14F"/>
</g>
<defs>
<clipPath id="clip0_1006_3666">
<rect width="138" height="34" fill="white" transform="translate(0 0.5)"/>
</clipPath>
</defs>
</svg>
